<?xml version="1.0" standalone="no"?>
<!DOCTYPE svg PUBLIC "-//W3C//DTD SVG 20010904//EN"
 "http://www.w3.org/TR/2001/REC-SVG-20010904/DTD/svg10.dtd">
<svg version="1.0" xmlns="http://www.w3.org/2000/svg"
 width="592.000000pt" height="592.000000pt" viewBox="0 0 592.000000 592.000000"
 preserveAspectRatio="xMidYMid meet">
<metadata>
Created by potrace 1.14, written by Peter Selinger 2001-2017
</metadata>
<g transform="translate(0.000000,592.000000) scale(0.100000,-0.100000)"
fill="#000000" stroke="none">
<path d="M1706 5875 c-9 -13 -16 -27 -16 -30 0 -3 -12 -24 -26 -47 -42 -67
-84 -141 -97 -170 -6 -16 -15 -28 -19 -28 -4 0 -8 -5 -8 -10 0 -6 -18 -40 -40
-76 -22 -36 -40 -68 -40 -70 0 -2 -18 -33 -40 -69 -22 -36 -40 -67 -40 -69 0
-2 -49 -90 -110 -195 -60 -105 -110 -196 -110 -201 0 -6 -3 -10 -7 -10 -5 0
-13 -10 -19 -23 -15 -33 -58 -111 -64 -117 -7 -7 -29 -42 -37 -60 -4 -8 -26
-48 -50 -88 -24 -40 -43 -74 -43 -76 0 -2 -44 -79 -98 -172 -53 -93 -108 -190
-122 -216 -14 -27 -28 -48 -32 -48 -5 0 -8 -5 -8 -11 0 -6 -17 -41 -39 -77
-21 -37 -48 -83 -59 -103 -42 -75 -47 -84 -52 -89 -3 -3 -12 -18 -21 -35 -38
-70 -83 -151 -94 -170 -9 -15 -11 -92 -10 -285 11 -1060 16 -1623 16 -1730 1
-173 1 -172 62 -206 29 -15 75 -42 102 -59 28 -18 71 -43 96 -57 78 -44 94
-53 99 -58 3 -3 16 -11 30 -19 25 -15 111 -65 275 -161 50 -29 104 -60 120
-70 39 -22 133 -78 165 -99 14 -8 27 -16 30 -16 3 0 19 -10 37 -23 17 -12 34
-22 37 -22 3 0 36 -19 73 -42 38 -22 82 -49 98 -58 49 -28 664 -389 741 -435
39 -24 86 -52 105 -62 19 -10 100 -58 181 -106 l148 -88 82 48 c46 26 101 59
123 73 l40 25 0 1020 -1 1020 51 91 c28 49 55 97 58 105 4 8 17 30 28 49 60
99 179 313 179 321 0 5 4 9 9 9 5 0 12 9 16 20 3 10 58 110 121 221 62 111
114 206 114 210 0 5 5 9 10 9 6 0 10 5 10 10 0 9 29 61 105 192 6 9 22 39 36
65 15 26 36 64 47 83 19 32 97 170 147 259 113 203 149 261 154 254 3 -5 17
-14 31 -20 29 -14 101 -55 218 -124 45 -27 87 -49 92 -49 6 0 10 -4 10 -10 0
-5 4 -10 10 -10 5 0 44 -20 86 -45 41 -25 80 -45 85 -45 5 0 9 -4 9 -10 0 -5
4 -10 9 -10 5 0 44 -20 85 -45 42 -25 81 -45 86 -45 6 0 10 -4 10 -10 0 -5 6
-10 13 -11 6 0 86 -44 177 -98 l165 -97 2 -1015 c1 -557 2 -1017 2 -1021 1 -4
25 6 54 24 28 17 66 38 82 47 96 54 105 62 106 94 0 18 1 499 1 1070 0 703 -3
1042 -10 1049 -11 11 -39 28 -92 55 -19 10 -37 21 -40 24 -3 3 -12 9 -20 12
-8 4 -28 16 -45 27 -16 11 -37 23 -45 27 -8 4 -58 32 -110 63 -52 31 -102 60
-110 64 -8 4 -24 12 -35 19 -12 7 -54 32 -95 56 -41 24 -86 51 -100 60 -14 9
-36 22 -49 29 -23 12 -159 91 -239 139 -20 12 -44 25 -52 29 -8 5 -87 50 -175
102 -88 52 -176 103 -195 114 -32 19 -235 137 -270 158 -8 5 -62 37 -120 70
-58 33 -112 65 -120 70 -8 6 -33 19 -55 31 -22 12 -58 33 -80 48 -22 14 -42
26 -45 26 -3 0 -17 8 -32 18 -16 9 -40 25 -55 34 -16 10 -30 18 -33 18 -4 1
-82 46 -138 80 -9 6 -35 21 -57 33 -22 12 -53 31 -70 41 -16 10 -50 29 -75 43
-25 14 -128 74 -230 133 -102 59 -201 117 -220 128 -19 11 -47 27 -62 36 -15
9 -73 43 -130 75 -149 85 -339 196 -368 215 -14 8 -27 16 -30 16 -3 0 -18 9
-35 19 -16 11 -47 30 -67 43 -47 29 -52 29 -72 -2z"/>
<path d="M4395 2340 c-27 -16 -55 -32 -60 -37 -11 -8 -43 -27 -104 -60 -19
-10 -40 -22 -45 -26 -6 -5 -81 -49 -166 -99 -85 -50 -157 -95 -160 -99 -4 -6
-5 -1331 -1 -1376 1 -7 29 6 64 28 34 21 69 42 77 46 8 4 76 44 153 90 76 46
139 83 141 83 2 0 37 20 77 44 l74 45 0 695 c1 383 1 696 0 695 0 0 -22 -13
-50 -29z"/>
</g>
</svg>
